<svg width="160" height="160" viewBox="0 0 160 160" fill="none" xmlns="http://www.w3.org/2000/svg">
  <rect width="160" height="160" rx="36" fill="#2563EB"/>
  <path d="M40 54C40 46.268 46.268 40 54 40H106C113.732 40 120 46.268 120 54V62H40V54Z" fill="#F8FAFC"/>
  <rect x="40" y="62" width="80" height="54" rx="12" fill="#F8FAFC"/>
  <rect x="48" y="70" width="64" height="14" rx="7" fill="#2563EB"/>
  <rect x="48" y="92" width="44" height="10" rx="5" fill="#93C5FD"/>
  <path d="M114 70H128C134.627 70 140 75.373 140 82V96C140 102.627 134.627 108 128 108H114V70Z" fill="#60A5FA"/>
  <path d="M104 78C104 72.4772 108.477 68 114 68V110C108.477 110 104 105.523 104 100V78Z" fill="#1D4ED8"/>
  <circle cx="122" cy="89" r="8" fill="#F8FAFC"/>
</svg>
